<svg xmlns="http://www.w3.org/2000/svg" width="2000" height="2000" viewBox="0 0 2000 2000" role="img" aria-label="Stop Guessing Who to Prospect">
  <defs>
    <linearGradient id="bg" x1="0" y1="0" x2="1" y2="1"><stop offset="0" stop-color="#0f172a"/><stop offset="0.58" stop-color="#07111f"/><stop offset="1" stop-color="#020617"/></linearGradient>
    <linearGradient id="accent" x1="0" y1="0" x2="1" y2="1"><stop offset="0" stop-color="#22d3ee"/><stop offset="1" stop-color="#ffffff" stop-opacity="0.55"/></linearGradient>
    <filter id="shadow" x="-20%" y="-20%" width="140%" height="140%"><feDropShadow dx="0" dy="36" stdDeviation="34" flood-color="#000000" flood-opacity="0.36"/></filter>
  </defs>
  <rect width="2000" height="2000" fill="url(#bg)"/>
  <path d="M160 270h1680" stroke="rgba(255,255,255,.1)" stroke-width="2"/>
  <text x="160" y="205" fill="#cbd5e1" font-family="Inter, Arial, sans-serif" font-size="34" font-weight="800" letter-spacing="8">PROSPECTING BLUEPRINT</text>
  <text x="160" y="312" fill="#22d3ee" font-family="Inter, Arial, sans-serif" font-size="30" font-weight="800" letter-spacing="5">CUSTOM DIGITAL PRODUCT</text>
  <g filter="url(#shadow)">
    <rect x="1120" y="390" width="560" height="760" rx="34" fill="#f8fafc"/>
    <rect x="1180" y="470" width="360" height="26" rx="13" fill="#0f172a" opacity="0.9"/>
    <rect x="1180" y="540" width="410" height="18" rx="9" fill="#64748b" opacity="0.45"/>
    <rect x="1180" y="595" width="290" height="18" rx="9" fill="#64748b" opacity="0.34"/>
    <rect x="1180" y="700" width="120" height="120" rx="24" fill="#22d3ee" opacity="0.18"/>
    <circle cx="1240" cy="760" r="34" fill="none" stroke="#22d3ee" stroke-width="12"/>
    <path d="M1265 785l58 58" stroke="#22d3ee" stroke-width="16" stroke-linecap="round"/>
    <rect x="1180" y="900" width="390" height="34" rx="17" fill="#0f172a" opacity="0.84"/>
    <rect x="1180" y="970" width="320" height="20" rx="10" fill="#64748b" opacity="0.42"/>
    <rect x="1180" y="1018" width="370" height="20" rx="10" fill="#64748b" opacity="0.34"/>
  </g>
  <g transform="translate(160 520)">
    <rect x="0" y="0" width="820" height="170" rx="32" fill="rgba(255,255,255,.06)" stroke="rgba(255,255,255,.12)"/>
    <text x="42" y="66" fill="#94a3b8" font-family="Inter, Arial, sans-serif" font-size="28" font-weight="800" letter-spacing="4">PRIMARY THUMBNAIL</text>
    <text x="42" y="124" fill="#ffffff" font-family="Inter, Arial, sans-serif" font-size="42" font-weight="900">TARGET</text>
  </g>
  <text x="160" y="920" fill="#ffffff" font-family="Inter, Arial, sans-serif" font-size="118" font-weight="900"><tspan x="160" dy="0">Stop Guessing Who</tspan><tspan x="160" dy="132">to Prospect</tspan></text>
  <text x="160" y="1245" fill="#cbd5e1" font-family="Inter, Arial, sans-serif" font-size="48" font-weight="600"><tspan x="160" dy="0">Custom ICP + Research Blueprint built around your offer</tspan><tspan x="160" dy="66"></tspan></text>
  <rect x="160" y="1500" width="760" height="104" rx="52" fill="url(#accent)"/>
  <text x="220" y="1568" fill="#020617" font-family="Inter, Arial, sans-serif" font-size="40" font-weight="900">Get Your Custom Blueprint</text>
  <text x="160" y="1830" fill="#64748b" font-family="Inter, Arial, sans-serif" font-size="30" font-weight="700">No private contact data. No guaranteed results.</text>
</svg>